<svg width="56" height="56" viewBox="0 0 56 56" fill="none" xmlns="http://www.w3.org/2000/svg">
<g clip-path="url(#clip0_574_3502)">
<path d="M20.7974 26.1772H18.3472C18.2676 26.1783 18.1916 26.2102 18.1353 26.2662C18.079 26.3222 18.0469 26.3979 18.0459 26.4771V27.0246C16.9836 26.3175 15.7339 25.9408 14.4558 25.9426C10.6561 25.9426 7.7998 28.915 7.7998 32.8651C7.7998 36.8152 10.6561 39.7876 14.4558 39.7876C15.7393 39.7862 16.9918 39.3951 18.0459 38.6664V39.24C18.0469 39.3227 18.0804 39.4017 18.1391 39.4601C18.1979 39.5186 18.2773 39.5519 18.3604 39.5529H20.8105C20.8936 39.5519 20.973 39.5186 21.0317 39.4601C21.0905 39.4017 21.1239 39.3227 21.125 39.24V26.4771C21.1138 26.3971 21.0751 26.3234 21.0153 26.2687C20.9555 26.2139 20.8785 26.1816 20.7974 26.1772ZM14.5213 36.763C12.3988 36.763 10.9182 35.1595 10.9182 32.8651C10.9182 30.6097 12.425 28.9671 14.5082 28.9671C16.4867 28.9671 18.0459 30.6749 18.0459 32.8651C18.0459 35.0552 16.4867 36.763 14.5213 36.763Z" fill="#222222"/>
<path d="M26.3398 22.1871H24.0469C23.9426 22.1871 23.8427 22.2283 23.7689 22.3017C23.6952 22.375 23.6538 22.4745 23.6538 22.5782V39.4216C23.6538 39.5254 23.6952 39.6248 23.7689 39.6982C23.8427 39.7715 23.9426 39.8127 24.0469 39.8127H26.3398C26.4441 39.8127 26.544 39.7715 26.6178 39.6982C26.6915 39.6248 26.7329 39.5254 26.7329 39.4216V22.5782C26.7329 22.4745 26.6915 22.375 26.6178 22.3017C26.544 22.2283 26.4441 22.1871 26.3398 22.1871Z" fill="#222222"/>
<path d="M31.9084 22.1871H29.6678C29.6126 22.1864 29.5577 22.1968 29.5066 22.2175C29.4554 22.2382 29.4089 22.2689 29.3698 22.3078C29.3307 22.3466 29.2999 22.3929 29.2791 22.4438C29.2582 22.4948 29.2479 22.5493 29.2486 22.6043V39.3825C29.2479 39.4375 29.2582 39.4921 29.2791 39.543C29.2999 39.594 29.3307 39.6402 29.3698 39.6791C29.4089 39.718 29.4554 39.7487 29.5066 39.7694C29.5577 39.7901 29.6126 39.8004 29.6678 39.7997H31.9084C31.9636 39.8004 32.0185 39.7901 32.0696 39.7694C32.1208 39.7487 32.1673 39.718 32.2064 39.6791C32.2455 39.6402 32.2763 39.594 32.2971 39.543C32.318 39.4921 32.3283 39.4375 32.3276 39.3825V22.6043C32.3283 22.5493 32.318 22.4948 32.2971 22.4438C32.2763 22.3929 32.2455 22.3466 32.2064 22.3078C32.1673 22.2689 32.1208 22.2382 32.0696 22.2175C32.0185 22.1968 31.9636 22.1864 31.9084 22.1871Z" fill="#222222"/>
<path d="M41.2503 25.9426C37.3458 25.9426 34.293 28.9801 34.293 32.8651C34.293 36.75 37.3458 39.7876 41.2503 39.7876C45.1549 39.7876 48.2077 36.75 48.2077 32.8651C48.2077 28.9801 45.1549 25.9426 41.2503 25.9426ZM41.2503 36.763C39.0622 36.763 37.4113 35.0943 37.4113 32.8651C37.4113 30.6358 39.0622 28.9671 41.2503 28.9671C43.4385 28.9671 45.0894 30.6358 45.0894 32.8651C45.0894 35.0943 43.4385 36.763 41.2503 36.763Z" fill="#222222"/>
<path d="M39.0361 23.5418C38.9453 23.5575 38.8518 23.5389 38.7741 23.4896C37.8409 22.8625 37.1956 21.8929 36.9795 20.7934C36.7634 19.6938 36.9941 18.5538 37.6211 17.6231C38.2514 16.6946 39.2258 16.0526 40.3309 15.8375C41.4361 15.6225 42.5818 15.852 43.5172 16.4759C43.555 16.5015 43.5874 16.5344 43.6125 16.5725C43.6376 16.6107 43.6549 16.6534 43.6634 16.6981C43.672 16.7429 43.6715 16.789 43.6622 16.8336C43.6528 16.8782 43.6347 16.9206 43.6089 16.9582C43.5831 16.9959 43.5501 17.0281 43.5117 17.0531C43.4734 17.0781 43.4305 17.0953 43.3855 17.1038C43.3405 17.1122 43.2942 17.1118 43.2494 17.1025C43.2045 17.0932 43.162 17.0752 43.1241 17.0495C42.3404 16.5261 41.3798 16.3338 40.4536 16.5147C39.5274 16.6955 38.7113 17.2349 38.1845 18.0142C37.9228 18.3999 37.7403 18.8333 37.6475 19.2894C37.5546 19.7455 37.5531 20.2154 37.6432 20.672C37.7333 21.1287 37.9131 21.5631 38.1724 21.9504C38.4317 22.3378 38.7653 22.6703 39.1541 22.929C39.2295 22.9817 39.2813 23.0616 39.2984 23.1517C39.3155 23.2418 39.2966 23.3349 39.2458 23.4114C39.1935 23.4781 39.1193 23.5243 39.0361 23.5418Z" fill="#6F61BE"/>
<path d="M36.5466 24.0262C36.4557 24.0419 36.3623 24.0233 36.2845 23.974C36.2091 23.9213 36.1573 23.8415 36.1402 23.7514C36.1231 23.6613 36.1419 23.5681 36.1928 23.4917C36.4544 23.1059 36.6369 22.6726 36.7298 22.2165C36.8227 21.7604 36.8242 21.2905 36.7341 20.8338C36.644 20.3772 36.4641 19.9427 36.2049 19.5554C35.9456 19.1681 35.612 18.8355 35.2232 18.5768C34.4395 18.0535 33.479 17.8611 32.5528 18.042C31.6265 18.2229 30.8104 18.7622 30.2836 19.5415C30.2578 19.5792 30.2248 19.6114 30.1865 19.6364C30.1481 19.6614 30.1052 19.6786 30.0602 19.6871C30.0152 19.6955 29.9689 19.6951 29.9241 19.6858C29.8792 19.6765 29.8367 19.6585 29.7988 19.6328C29.761 19.6071 29.7286 19.5743 29.7035 19.5361C29.6784 19.498 29.6611 19.4553 29.6526 19.4105C29.644 19.3657 29.6445 19.3197 29.6538 19.2751C29.6632 19.2305 29.6813 19.1881 29.7071 19.1504C30.3374 18.222 31.3118 17.5799 32.417 17.3649C33.5221 17.1498 34.6678 17.3794 35.6032 18.0032C36.5363 18.6303 37.1817 19.5999 37.3978 20.6995C37.6139 21.799 37.3832 22.939 36.7562 23.8697C36.7381 23.9118 36.7092 23.9484 36.6724 23.9759C36.6357 24.0033 36.5922 24.0207 36.5466 24.0262Z" fill="#6F61BE"/>
<path d="M40.4118 16.2681C39.763 16.3945 39.0935 16.3684 38.4565 16.1919C37.8196 16.0155 37.2329 15.6935 36.743 15.2517C36.2532 14.8099 35.8738 14.2604 35.6349 13.647C35.3961 13.0336 35.3045 12.3732 35.3674 11.7183C35.3784 11.5915 35.3959 11.4653 35.4198 11.3402C35.5267 10.7711 35.7497 10.2299 36.0749 9.74977C36.1007 9.71211 36.1338 9.67987 36.1721 9.6549C36.2104 9.62993 36.2533 9.61272 36.2983 9.60424C36.3434 9.59577 36.3896 9.5962 36.4345 9.60551C36.4793 9.61483 36.5219 9.63283 36.5597 9.65851C36.5976 9.6842 36.63 9.71704 36.6551 9.75518C36.6802 9.79332 36.6975 9.836 36.706 9.88079C36.7145 9.92558 36.7141 9.9716 36.7047 10.0162C36.6953 10.0609 36.6772 10.1032 36.6514 10.1409C36.3777 10.5416 36.1904 10.9943 36.1011 11.4706C36.0816 11.574 36.0685 11.6785 36.0618 11.7835C35.9878 12.5675 36.1784 13.3537 36.6036 14.0179C37.0288 14.6821 37.6643 15.1864 38.4096 15.451C39.155 15.7157 39.9678 15.7257 40.7196 15.4794C41.4713 15.2331 42.1191 14.7445 42.5606 14.091C42.6127 14.0149 42.6931 13.9626 42.784 13.9455C42.8749 13.9283 42.969 13.9479 43.0454 13.9997C43.1219 14.0516 43.1745 14.1316 43.1917 14.222C43.2089 14.3125 43.1893 14.406 43.1371 14.4821C42.5001 15.4109 41.521 16.0526 40.4118 16.2681Z" fill="#6F61BE"/>
<path d="M32.511 17.8066C31.9643 17.9151 31.4013 17.9145 30.8547 17.8049C30.3082 17.6952 29.7889 17.4787 29.3271 17.1678C29.2507 17.1159 29.1981 17.0359 29.1809 16.9455C29.1637 16.855 29.1833 16.7615 29.2354 16.6854C29.2876 16.6093 29.3679 16.557 29.4588 16.5399C29.5497 16.5228 29.6438 16.5423 29.7202 16.5941C30.3532 17.0175 31.1061 17.2273 31.868 17.1927C32.6298 17.1581 33.3604 16.8808 33.9519 16.4018C34.5434 15.9228 34.9646 15.2673 35.1534 14.5321C35.3422 13.7969 35.2886 13.0207 35.0005 12.3181C34.7365 11.6642 34.2797 11.1052 33.6903 10.7146C33.6138 10.6627 33.5612 10.5828 33.544 10.4923C33.5268 10.4019 33.5464 10.3083 33.5985 10.2322C33.6507 10.1562 33.731 10.1038 33.8219 10.0867C33.9128 10.0696 34.0069 10.0891 34.0833 10.141C34.7866 10.6074 35.3304 11.2759 35.6425 12.0574C35.8756 12.6369 35.9777 13.2603 35.9414 13.8835C35.905 14.5066 35.7312 15.1141 35.4323 15.6629C35.1334 16.2117 34.7167 16.6883 34.2118 17.0587C33.707 17.4292 33.1263 17.6845 32.511 17.8066Z" fill="#6F61BE"/>
<path d="M15.3927 42.4154V44.0828H17.3253V42.4154H17.8494V46.4008H17.3253V44.5326H15.3927V46.4008H14.8765V42.4154H15.3927Z" fill="#222222"/>
<path d="M22.0014 44.5326H20.4448V45.9666H22.1796V46.3994H19.9272V42.4154H22.0905V42.8469H20.4448V44.1063H22.0014V44.5326Z" fill="#222222"/>
<path d="M24.6758 45.1466L24.2592 46.4008H23.7246L25.0859 42.4154H25.7109L27.0775 46.4008H26.5233L26.0961 45.1466H24.6758ZM25.9861 44.7451L25.593 43.5979C25.5039 43.3371 25.4436 43.1012 25.3847 42.8704H25.3729C25.3126 43.1077 25.2419 43.3502 25.1711 43.5913L24.778 44.7451H25.9861Z" fill="#222222"/>
<path d="M28.8413 42.4154H29.3654V45.9679H31.07V46.4008H28.8426L28.8413 42.4154Z" fill="#222222"/>
<path d="M33.0598 42.8535H31.8413V42.4154H34.8064V42.8535H33.5826V46.4008H33.0585L33.0598 42.8535Z" fill="#222222"/>
<path d="M36.9464 42.4154V44.0828H38.8843V42.4154H39.4084V46.4008H38.8843V44.5326H36.9464V46.4008H36.4302V42.4154H36.9464Z" fill="#222222"/>
</g>
<defs>
<clipPath id="clip0_574_3502">
<rect width="40.4078" height="36.8" fill="white" transform="translate(7.7998 9.6)"/>
</clipPath>
</defs>
</svg>
